<svg width="16" height="24" viewBox="0 0 16 24" fill="none" xmlns="http://www.w3.org/2000/svg">
<path d="M2.18182 24C1.58182 24 1.06818 23.7864 0.640909 23.3591C0.213636 22.9318 0 22.4182 0 21.8182V2.18182C0 1.58182 0.213636 1.06818 0.640909 0.640909C1.06818 0.213636 1.58182 0 2.18182 0H13.0909C13.6909 0 14.2045 0.213636 14.6318 0.640909C15.0591 1.06818 15.2727 1.58182 15.2727 2.18182V21.8182C15.2727 22.4182 15.0591 22.9318 14.6318 23.3591C14.2045 23.7864 13.6909 24 13.0909 24H2.18182ZM2.18182 20.7273V21.8182H13.0909V20.7273H2.18182ZM2.18182 18.5455H13.0909V5.45455H2.18182V18.5455ZM2.18182 3.27273H13.0909V2.18182H2.18182V3.27273Z" fill="#333333"/>
</svg>
